<?xml version="1.0" standalone="no"?>
<!DOCTYPE svg PUBLIC "-//W3C//DTD SVG 20010904//EN"
 "http://www.w3.org/TR/2001/REC-SVG-20010904/DTD/svg10.dtd">
<svg version="1.0" xmlns="http://www.w3.org/2000/svg"
 width="512.000000pt" height="512.000000pt" viewBox="0 0 512.000000 512.000000"
 preserveAspectRatio="xMidYMid meet">
<metadata>
Created by potrace 1.11, written by Peter Selinger 2001-2013
</metadata>
<g transform="translate(0.000000,512.000000) scale(0.100000,-0.100000)"
fill="#000000" stroke="none">
<path d="M2240 5105 c-798 -104 -1493 -563 -1897 -1255 -45 -77 -98 -182 -151
-300 -72 -159 -149 -455 -177 -673 -19 -152 -19 -465 0 -627 46 -392 182 -763
401 -1096 98 -149 191 -264 335 -413 75 -77 242 -215 354 -293 331 -229 683
-365 1105 -430 134 -21 597 -18 737 5 540 85 1027 331 1422 718 168 164 357
422 468 639 153 298 240 591 274 917 15 148 6 525 -15 658 -84 512 -308 974
-656 1349 -404 437 -952 720 -1540 797 -170 22 -506 24 -660 4z"/>
</g>
</svg>
